HIERARCHY
ROOT joint_Root
{
	OFFSET 0.0 0.0 0.0
	CHANNELS 6 Xposition Yposition Zposition Zrotation Xrotation Yrotation 
	JOINT Hips
	{
		OFFSET -17.1583 93.1646 452.98
		CHANNELS 6 Xposition Yposition Zposition Zrotation Xrotation Yrotation 
		JOINT Spine
		{
			OFFSET 15.7357 0.0 0.0
			CHANNELS 6 Xposition Yposition Zposition Zrotation Xrotation Yrotation 
			JOINT Chest
			{
				OFFSET 8.98455 -0.406207 0.0
				CHANNELS 6 Xposition Yposition Zposition Zrotation Xrotation Yrotation 
				JOINT Neck
				{
					OFFSET 16.3773 0.0 0.0
					CHANNELS 6 Xposition Yposition Zposition Zrotation Xrotation Yrotation 
					JOINT Head
					{
						OFFSET 6.45672 0.0 0.0
						CHANNELS 6 Xposition Yposition Zposition Zrotation Xrotation Yrotation 
						End Site
						{
							OFFSET 0.0 0.0 0.0
						}
					}
				}
				JOINT Shoulder_L
				{
					OFFSET 12.9942 -0.242716 4.98039
					CHANNELS 6 Xposition Yposition Zposition Zrotation Xrotation Yrotation 
					JOINT UpperArm_L
					{
						OFFSET 5.34809 0.0 0.0
						CHANNELS 6 Xposition Yposition Zposition Zrotation Xrotation Yrotation 
						JOINT LowerArm_L
						{
							OFFSET 24.3286 1.87007e-05 0.0
							CHANNELS 6 Xposition Yposition Zposition Zrotation Xrotation Yrotation 
							JOINT Hand_L
							{
								OFFSET 22.2916 0.0 0.0
								CHANNELS 6 Xposition Yposition Zposition Zrotation Xrotation Yrotation 
								End Site
								{
									OFFSET 0.0 0.0 0.0
								}
							}
						}
					}
				}
				JOINT Shoulder_R
				{
					OFFSET 12.9945 -0.242716 -4.98039
					CHANNELS 6 Xposition Yposition Zposition Zrotation Xrotation Yrotation 
					JOINT UpperArm_R
					{
						OFFSET -5.34813 0.0 0.0
						CHANNELS 6 Xposition Yposition Zposition Zrotation Xrotation Yrotation 
						JOINT LowerArm_R
						{
							OFFSET -24.3289 0.000322201 0.0
							CHANNELS 6 Xposition Yposition Zposition Zrotation Xrotation Yrotation 
							JOINT Hand_R
							{
								OFFSET -22.2915 -0.000108084 0.0
								CHANNELS 6 Xposition Yposition Zposition Zrotation Xrotation Yrotation 
								End Site
								{
									OFFSET 0.0 0.0 0.0
								}
							}
						}
					}
				}
			}
		}
		JOINT UpperLeg_L
		{
			OFFSET -2.19248 -6.46944 0.0
			CHANNELS 6 Xposition Yposition Zposition Zrotation Xrotation Yrotation 
			JOINT LowerLeg_L
			{
				OFFSET 39.0811 0.0 -1.23785e-05
				CHANNELS 6 Xposition Yposition Zposition Zrotation Xrotation Yrotation 
				JOINT Foot_L
				{
					OFFSET 40.9854 0.0 -1.26872e-05
					CHANNELS 6 Xposition Yposition Zposition Zrotation Xrotation Yrotation 
					JOINT Toes_L
					{
						OFFSET 11.7543 0.0 0.0
						CHANNELS 6 Xposition Yposition Zposition Zrotation Xrotation Yrotation 
						End Site
						{
							OFFSET 0.0 0.0 0.0
						}
					}
				}
			}
		}
		JOINT UpperLeg_R
		{
			OFFSET -2.19251 6.46944 0.0
			CHANNELS 6 Xposition Yposition Zposition Zrotation Xrotation Yrotation 
			JOINT LowerLeg_R
			{
				OFFSET -39.0811 -0.00228153 -0.0401928
				CHANNELS 6 Xposition Yposition Zposition Zrotation Xrotation Yrotation 
				JOINT Foot_R
				{
					OFFSET -40.9854 0.0 0.0
					CHANNELS 6 Xposition Yposition Zposition Zrotation Xrotation Yrotation 
					JOINT Toes_R
					{
						OFFSET -11.7543 0.0 0.0
						CHANNELS 6 Xposition Yposition Zposition Zrotation Xrotation Yrotation 
						End Site
						{
							OFFSET 0.0 0.0 0.0
						}
					}
				}
			}
		}
	}
}
MOTION
Frames:	4
Frame Time:	0.0333333
0.000000 0.000000 0.000000 0.000000 0.000000 -0.000000 -1.872600 93.844400 0.461973 87.696600 1.037050 -6.985430 15.735700 0.000005 -0.000001 -39.939900 89.041400 41.480000 8.984550 -0.406207 -0.000000 -8.974410 -1.689510 2.956170 16.377300 -0.000001 -0.000001 -9.739710 1.061070 -0.578997 6.456720 -0.000001 -0.000000 -14.191600 2.347050 -2.836850 12.994200 -0.242716 4.980390 -87.969000 -3.862180 -62.233700 5.348090 -0.000007 -0.000001 -85.293500 -65.680600 -127.137000 24.328600 0.000019 0.000005 0.000061 -13.977200 -0.000000 22.291600 -0.000001 0.000005 51.863200 4.456090 17.319800 12.994500 -0.242716 -4.980390 94.039100 -6.759670 -59.040100 -5.348130 -0.000001 -0.000004 -83.717200 -62.760300 -131.960000 -24.328900 0.000322 -0.000009 -0.001111 -27.815200 -0.000158 -22.291500 -0.000108 -0.000004 42.619300 5.391720 -2.670170 -2.192480 -6.469440 -0.000000 -173.324000 -13.722100 -4.484150 39.081100 -0.000007 -0.000012 -0.022661 0.195076 6.625910 40.985400 -0.000006 -0.000013 -6.787190 17.298800 -63.122500 11.754300 -0.000000 0.000003 -0.002435 0.201670 -8.394300 -2.192510 6.469440 -0.000001 178.370000 10.838800 179.117000 -39.081100 -0.002282 -0.040193 0.003791 -0.088264 0.282710 -40.985400 0.000008 0.000006 -10.236500 11.130400 -59.363900 -11.754300 -0.000006 -0.000006 -0.011978 0.285539 -4.968420
0.000000 0.000000 0.000000 0.000000 0.000000 -0.000000 -1.911130 93.836300 0.487206 87.668700 1.015570 -6.935130 15.735700 0.000005 -0.000001 -39.979800 89.050000 41.518100 8.984550 -0.406207 -0.000000 -8.964650 -1.675240 2.953650 16.377300 -0.000001 -0.000001 -9.593300 1.123590 -0.600949 6.456720 -0.000001 -0.000000 -14.201900 2.397970 -2.878730 12.994200 -0.242716 4.980390 -87.991600 -3.811370 -62.185900 5.348090 -0.000007 -0.000001 -85.334000 -65.525000 -127.118000 24.328600 0.000019 0.000005 0.000046 -13.731400 -0.000000 22.291600 -0.000001 0.000005 52.021900 4.439270 17.592700 12.994500 -0.242716 -4.980390 94.057900 -6.797200 -59.061600 -5.348130 -0.000001 -0.000004 -83.609700 -62.631600 -131.799000 -24.328900 0.000322 -0.000009 -0.001112 -27.859700 -0.000158 -22.291500 -0.000108 -0.000004 42.367200 5.387840 -2.546400 -2.192480 -6.469440 -0.000000 -173.248000 -13.754000 -4.483860 39.081100 -0.000007 -0.000012 -0.023498 0.198169 6.762220 40.985400 -0.000006 -0.000013 -6.811880 17.313400 -63.191900 11.754300 -0.000000 0.000003 -0.002578 0.203365 -8.325340 -2.192510 6.469440 -0.000001 178.424000 10.805500 179.137000 -39.081100 -0.002282 -0.040193 0.003929 -0.086875 0.378371 -40.985400 0.000008 0.000006 -10.076000 11.151800 -59.473800 -11.754300 -0.000006 -0.000006 -0.012161 0.286801 -4.916700
0.000000 0.000000 0.000000 0.000000 0.000000 -0.000000 -1.964100 93.837600 0.495623 87.672500 1.034810 -6.936580 15.735700 0.000005 -0.000001 -40.425100 89.048200 41.930200 8.984550 -0.406207 -0.000000 -8.978930 -1.663760 2.887700 16.377300 -0.000001 -0.000001 -9.504810 1.173170 -0.615892 6.456720 -0.000001 -0.000000 -14.153900 2.484030 -2.818310 12.994200 -0.242716 4.980390 -87.991600 -3.808930 -62.170000 5.348090 -0.000007 -0.000001 -84.900300 -65.526500 -126.713000 24.328600 0.000019 0.000005 0.000046 -13.905900 -0.000000 22.291600 -0.000001 0.000005 52.248100 4.440160 17.578300 12.994500 -0.242716 -4.980390 94.049800 -6.780510 -59.049900 -5.348130 -0.000001 -0.000004 -83.129700 -62.616500 -131.295000 -24.328900 0.000322 -0.000009 -0.001112 -27.862200 -0.000158 -22.291500 -0.000108 -0.000004 42.359500 5.387090 -2.522720 -2.192480 -6.469440 -0.000000 -173.210000 -13.701400 -4.425360 39.081100 -0.000007 -0.000012 -0.022985 0.197017 6.654190 40.985400 -0.000006 -0.000013 -6.936860 17.281200 -63.132300 11.754300 -0.000000 0.000003 -0.002564 0.203199 -8.332110 -2.192510 6.469440 -0.000001 178.464000 10.882900 179.135000 -39.081100 -0.002282 -0.040193 0.003956 -0.086265 0.399361 -40.985400 0.000008 0.000006 -10.008200 11.174900 -59.497000 -11.754300 -0.000006 -0.000006 -0.012055 0.286065 -4.946850
0.000000 0.000000 0.000000 0.000000 0.000000 -0.000000 -2.017060 93.827200 0.508920 87.640200 1.082680 -6.918140 15.735700 0.000005 -0.000001 -39.496500 89.044400 40.996000 8.984550 -0.406207 -0.000000 -8.959910 -1.688270 2.874930 16.377300 -0.000001 -0.000001 -9.360660 1.232020 -0.638424 6.456720 -0.000001 -0.000000 -14.172400 2.581790 -2.805160 12.994200 -0.242716 4.980390 -87.988800 -3.807810 -62.130200 5.348090 -0.000007 -0.000001 -85.164900 -65.310100 -126.880000 24.328600 0.000019 0.000005 0.000046 -13.530800 -0.000000 22.291600 -0.000001 0.000005 52.214000 4.437770 17.616900 12.994500 -0.242716 -4.980390 94.074900 -6.817420 -59.029900 -5.348130 -0.000001 -0.000004 -82.724600 -62.608900 -130.861000 -24.328900 0.000322 -0.000009 -0.001050 -27.711400 -0.000157 -22.291500 -0.000108 -0.000004 42.264100 5.387700 -2.541940 -2.192480 -6.469440 -0.000000 -173.120000 -13.553700 -4.536540 39.081100 -0.000007 -0.000012 -0.024442 0.201490 6.916400 40.985400 -0.000006 -0.000013 -7.093100 17.205500 -63.211800 11.754300 -0.000000 0.000003 -0.002567 0.203232 -8.330730 -2.192510 6.469440 -0.000001 178.540000 10.876900 179.173000 -39.081100 -0.002282 -0.040193 0.003932 -0.084881 0.389438 -40.985400 0.000008 0.000006 -9.889850 11.134500 -59.553500 -11.754300 -0.000006 -0.000006 -0.012339 0.288022 -4.866680
